Genre:Action | Comedy
Language:English
IMDb:http://www.imdb.com/title/tt1386588/
Source:DVDSCR Rus
Audio:Imagine

General
Complete name :The Other Guys DVDSCR XviD FEEL-FREE
Format : AVI
Format/Info : Audio Video Interleave
File size : 1.63 GiB
Duration : 1h 47mn
Overall bit rate : 2 175 Kbps
Writing library : VirtualDub build 32817/release
Video #0
Codec ID : XVID
Codec ID/Hint : XviD
Duration : 1h 47mn
Bit rate : 1 910 Kbps
Width : 688 pixels
Height : 288 pixels
Display aspect ratio : 2.35:1
Frame rate : 23.976 fps
Resolution : 24 bits
Colorimetry : 4:2:0
Scan type : Progressive
Bits/(Pixel*Frame) : 0.402
Stream size : 1.43 GiB (88%)
Writing library : XviD 1.2.1 (UTC 2008-12-04)
Audio #1
ID : 1
Format : AC-3
Format/Info : Audio Coding 3
Codec ID : 2000
Duration : 1h 47mn
Bit rate mode : Constant
Bit rate : 256 Kbps
Channel(s) : 2 channels
Channel positions : L R
Sampling rate : 48.0 KHz
Stream size : 196 MiB (12%)
Alignment : Aligned on interleaves
Interleave, duration : 42 ms (1.00 video frame)
Interleave, preload duration : 512 ms

Plot
Two mismatched New York City detectives seize an opportunity to step up like the city's top cops whom they idolize -- only things don't quite go as planned





 
http://thepiratebay.org/user/hiest







DvD CoVeR:
 
http://shareimage.ro/images/el6gxp4tea7d809wtnw.jpg





Screenshots:
 
http://www.starshare.ro/bitbucket/The%20Other%20Guys%20DVDSCR%20XviD%20FEEL-FREE.avi_thumbs_%5B2010.08.28_00.40.49%5D.jpg
 
http://www.starshare.ro/bitbucket/The%20Other%20Guys%20DVDSCR%20XviD%20FEEL-FREE.avi_snapshot_00.16.48_%5B2010.08.28_00.39.54%5D.jpg
 
http://www.starshare.ro/bitbucket/The%20Other%20Guys%20DVDSCR%20XviD%20FEEL-FREE.avi_snapshot_00.27.34_%5B2010.08.28_00.40.16%5D.jpg
 
http://www.starshare.ro/bitbucket/vlcsnap-2010-08-28-00h41m54s33.jpg
 
http://www.starshare.ro/bitbucket/vlcsnap-2010-08-28-00h51m23s103.jpg
 
http://www.starshare.ro/bitbucket/vlcsnap-2010-08-28-00h51m28s160.jpg
 
http://www.starshare.ro/bitbucket/vlcsnap-2010-08-28-00h51m33s199.jpg